<?xml version="1.0" standalone="no"?>
<!DOCTYPE svg PUBLIC "-//W3C//DTD SVG 20010904//EN"
 "http://www.w3.org/TR/2001/REC-SVG-20010904/DTD/svg10.dtd">
<svg version="1.0" xmlns="http://www.w3.org/2000/svg"
 width="260.000000pt" height="280.000000pt" viewBox="0 0 260.000000 280.000000"
 preserveAspectRatio="xMidYMid meet">

<g transform="translate(0.000000,280.000000) scale(0.100000,-0.100000)"
fill="#000000" stroke="none">
<path d="M1094 1885 c-29 -31 -38 -35 -83 -35 -35 0 -51 4 -51 13 0 25 24 37
80 39 52 1 53 2 11 5 -74 7 -88 -1 -106 -59 -8 -28 -14 -65 -14 -82 2 -31 2
-31 6 -3 4 26 7 27 59 27 51 0 54 -1 54 -25 0 -39 18 -30 25 13 10 59 13 60
15 7 1 -27 4 -41 6 -30 22 109 27 126 44 135 28 15 39 -7 43 -85 l3 -70 2 77
c2 69 0 78 -20 92 -31 22 -36 21 -74 -19z m-39 -75 c-3 -5 -31 -10 -61 -10
-34 0 -53 4 -49 10 3 6 31 10 61 10 34 0 53 -4 49 -10z"/>
<path d="M606 1869 c-101 -35 -191 -110 -236 -198 -32 -63 -23 -61 16 5 51 84
89 120 173 162 72 36 80 37 210 43 l136 6 -120 1 c-97 1 -131 -3 -179 -19z"/>
<path d="M908 1872 c-5 -16 -18 -19 -112 -21 -59 -1 -133 -9 -164 -17 -109
-29 -211 -107 -252 -194 -14 -30 -26 -46 -31 -39 -7 12 -14 -11 -25 -92 -12
-94 46 -236 119 -292 91 -69 153 -84 255 -62 83 19 119 34 170 72 59 44 25 62
-38 19 -73 -49 -179 -68 -265 -46 -23 6 -13 8 41 9 74 1 155 23 175 47 17 21
-9 18 -62 -6 -85 -38 -237 -19 -294 37 -101 100 -90 300 22 404 61 56 114 77
229 90 133 14 208 9 212 -13 3 -16 -10 -18 -135 -21 l-138 -3 143 -2 142 -2 0
40 c0 22 7 56 14 75 8 19 11 35 7 35 -5 0 -11 -8 -13 -18z m-18 -62 c0 -6 -40
-9 -102 -8 -80 1 -93 3 -58 8 71 11 160 11 160 0z"/>
<path d="M515 1704 c-95 -49 -146 -153 -124 -252 24 -109 106 -176 216 -176
35 0 58 -3 51 -8 -48 -30 -183 13 -232 73 -15 19 -23 24 -17 13 14 -29 68 -74
108 -91 43 -17 141 -17 177 2 24 13 124 15 707 15 446 0 679 3 679 10 0 7
-234 10 -682 10 l-682 0 36 38 c91 92 91 226 2 319 l-41 43 684 0 c449 0 683
3 683 10 0 7 -262 10 -767 10 -676 0 -772 -2 -798 -16z m149 -24 c24 -5 53
-23 75 -46 20 -20 31 -34 24 -30 -7 4 -18 -5 -28 -23 -21 -42 -19 -46 12 -21
20 16 28 18 35 8 15 -25 8 -48 -17 -54 -28 -7 -24 -24 6 -24 48 0 -1 -120 -66
-160 -28 -17 -47 -21 -104 -19 -41 2 -67 7 -64 13 4 5 -1 7 -10 3 -23 -9 -76
38 -98 88 -25 53 -24 119 2 172 22 45 75 97 90 88 5 -4 17 -1 26 4 22 13 66
13 117 1z"/>
<path d="M594 1663 c-19 -9 -40 -33 -54 -59 -20 -42 -23 -44 -66 -44 l-44 0 0
-58 0 -57 45 3 c36 3 45 1 45 -12 0 -9 -8 -16 -17 -17 -12 -1 -10 -4 7 -9 23
-7 21 -8 -11 -9 -26 -1 -39 4 -43 15 -4 9 -9 14 -12 11 -10 -9 32 -70 58 -86
19 -11 18 -8 -6 18 l-30 31 36 0 c26 0 45 -8 68 -30 18 -16 36 -30 41 -30 6 0
-7 15 -27 32 -62 55 -81 136 -49 209 20 46 34 63 75 88 40 24 30 27 -16 4z
m-84 -128 c0 -10 -11 -15 -35 -15 -24 0 -35 5 -35 15 0 10 11 15 35 15 24 0
35 -5 35 -15z m-30 -35 l-35 -7 33 -2 c47 -2 44 -31 -3 -31 -31 0 -35 3 -35
25 0 22 4 25 38 24 l37 -2 -35 -7z"/>
<path d="M500 1657 c-23 -17 -60 -68 -60 -81 0 -6 9 3 19 20 11 18 30 39 42
48 13 8 21 18 18 20 -2 2 -11 -1 -19 -7z"/>
<path d="M658 1663 c-10 -2 -18 -9 -18 -14 0 -13 39 -89 45 -89 3 0 5 25 5 55
0 30 -3 54 -7 54 -5 -1 -16 -3 -25 -6z"/>
<path d="M575 1593 c-9 -14 -13 -29 -8 -33 10 -9 83 -21 83 -13 0 3 -13 20
-29 39 l-29 33 -17 -26z"/>
<path d="M654 1515 c-8 -21 2 -45 19 -45 8 0 20 7 27 15 10 12 10 18 0 30 -7
8 -19 15 -27 15 -7 0 -16 -7 -19 -15z"/>
<path d="M541 1498 c0 -7 4 -21 7 -31 7 -16 10 -15 39 5 43 30 41 38 -7 38
-26 0 -40 -4 -39 -12z"/>
<path d="M736 1447 c22 -31 30 -33 38 -11 8 21 8 21 -28 30 l-29 7 19 -26z"/>
<path d="M605 1420 l-29 -30 22 -22 c23 -24 23 -24 41 45 11 45 4 47 -34 7z"/>
<path d="M686 1402 c-9 -48 -6 -55 18 -46 19 7 20 19 2 59 l-13 30 -7 -43z"/>
<path d="M1877 1641 c-111 -71 -149 -229 -69 -292 38 -30 117 -23 167 15 78
60 116 170 85 246 -27 64 -108 78 -183 31z m112 -77 c32 -70 -53 -184 -115
-155 -34 15 -40 55 -18 110 31 75 107 100 133 45z"/>
<path d="M860 1634 c-15 -37 -13 -44 13 -44 13 0 26 -3 29 -6 3 -3 -7 -53 -23
-112 -37 -139 -37 -142 5 -142 l33 0 34 128 34 127 33 3 c32 3 44 25 20 35 -8
3 -6 6 5 6 9 1 17 8 17 16 0 12 -17 15 -95 15 -93 0 -96 -1 -105 -26z"/>
<path d="M1057 1563 c-41 -152 -42 -173 -17 -206 19 -24 28 -27 78 -27 106 0
132 31 181 219 l29 111 -37 0 -38 0 -27 -102 c-14 -57 -35 -114 -45 -128 -22
-30 -53 -37 -70 -16 -11 13 -7 37 17 131 l30 115 -38 0 -37 0 -26 -97z"/>
<path d="M1307 1518 c-21 -79 -40 -153 -43 -165 -6 -21 -3 -23 29 -23 34 0 37
2 47 43 22 85 22 85 39 22 14 -54 19 -60 44 -63 55 -6 58 1 35 69 -17 52 -19
64 -7 68 55 18 95 112 68 160 -14 24 -21 26 -95 29 l-80 3 -37 -143z m141 49
c5 -23 -25 -57 -50 -57 -17 0 -19 5 -13 33 4 17 9 36 12 40 9 15 48 2 51 -16z"/>
<path d="M1571 1623 c-5 -21 -23 -90 -40 -154 -17 -64 -31 -122 -31 -129 0
-10 17 -12 80 -7 44 4 89 11 101 17 48 26 77 123 44 150 -13 11 -12 15 10 32
33 26 43 82 20 108 -15 17 -31 20 -96 20 l-78 0 -10 -37z m117 -47 c5 -22 -22
-46 -50 -46 -21 0 -22 8 -8 45 12 31 53 32 58 1z m-20 -127 c4 -23 -25 -49
-54 -49 -25 0 -28 9 -18 48 5 19 12 23 38 20 19 -2 32 -9 34 -19z"/>
<path d="M904 1245 c-21 -32 -93 -75 -153 -91 -30 -8 -37 -13 -21 -13 50 -1
167 66 190 109 15 29 3 24 -16 -5z"/>
<path d="M905 1220 l-39 -40 607 0 607 0 0 40 0 40 -568 0 -568 0 -39 -40z
m192 -12 c-3 -7 -5 -2 -5 12 0 14 2 19 5 13 2 -7 2 -19 0 -25z m200 10 c-3 -8
-6 -5 -6 6 -1 11 2 17 5 13 3 -3 4 -12 1 -19z m700 -10 c-3 -7 -5 -2 -5 12 0
14 2 19 5 13 2 -7 2 -19 0 -25z"/>
<path d="M668 1133 c7 -3 16 -2 19 1 4 3 -2 6 -13 5 -11 0 -14 -3 -6 -6z"/>
<path d="M603 95 c0 -27 2 -38 4 -22 2 15 8 27 13 27 5 0 11 -12 13 -27 4 -26
4 -26 6 5 1 22 -4 32 -13 32 -8 0 -17 8 -19 18 -3 9 -5 -5 -4 -33z"/>
<path d="M1102 95 c0 -27 2 -43 5 -35 3 8 13 24 22 35 15 18 15 19 -1 7 -14
-12 -17 -10 -21 15 -2 16 -4 6 -5 -22z"/>
<path d="M719 119 c-8 -20 4 -62 19 -65 7 -1 8 0 2 3 -15 7 -12 43 4 43 8 0
16 -10 18 -22 2 -12 9 -23 16 -24 7 -1 8 0 2 3 -12 6 -13 40 -1 45 5 2 3 9 -5
16 -8 7 -14 8 -14 2 0 -14 -27 -13 -32 2 -3 8 -6 7 -9 -3z"/>
<path d="M949 118 c-2 -25 3 -53 11 -62 5 -5 6 1 3 14 -3 12 -1 25 4 29 7 4 6
11 -3 19 -11 10 -14 10 -15 0z"/>
<path d="M1485 120 c-3 -5 0 -7 8 -4 24 9 28 -12 7 -31 -27 -25 -25 -35 8 -34
21 0 23 2 9 7 -15 7 -16 10 -3 27 7 10 12 25 9 32 -6 15 -29 17 -38 3z"/>
<path d="M1545 120 c-3 -5 0 -7 8 -4 24 9 28 -12 7 -31 -27 -25 -25 -35 8 -34
16 1 20 3 10 6 -15 4 -16 8 -7 25 11 21 12 21 26 -5 16 -32 39 -35 48 -7 15
46 -22 81 -44 43 -9 -17 -10 -17 -16 0 -8 19 -30 23 -40 7z m90 -30 c0 -27
-20 -38 -28 -15 -8 20 3 47 17 42 6 -2 11 -14 11 -27z"/>
<path d="M1665 120 c-3 -5 0 -7 8 -4 24 9 28 -12 7 -31 -27 -25 -25 -35 8 -34
21 0 23 2 9 7 -15 7 -16 10 -3 27 7 10 12 25 9 32 -6 15 -29 17 -38 3z"/>
<path d="M1737 123 c22 -4 22 -6 8 -33 -22 -42 -17 -51 5 -10 25 46 25 50 -7
49 -24 -2 -25 -2 -6 -6z"/>
<path d="M1792 105 c-22 -28 -23 -30 -5 -34 10 -2 21 -8 24 -13 10 -15 16 14
10 47 l-6 29 -23 -29z m14 -22 c-10 -10 -19 5 -10 18 6 11 8 11 12 0 2 -7 1
-15 -2 -18z"/>
<path d="M1850 106 c-15 -29 -8 -56 15 -56 23 0 31 31 12 45 -12 9 -14 14 -5
23 7 7 8 12 2 12 -6 0 -16 -11 -24 -24z m22 -31 c0 -5 -5 -11 -11 -13 -6 -2
-11 4 -11 13 0 9 5 15 11 13 6 -2 11 -8 11 -13z"/>
<path d="M1907 123 c-3 -5 -4 -21 -3 -38 1 -23 6 -30 21 -30 11 0 20 6 19 13
-1 6 -2 23 -2 37 -2 23 -25 35 -35 18z m23 -13 c0 -5 -4 -10 -10 -10 -5 0 -10
5 -10 10 0 6 5 10 10 10 6 0 10 -4 10 -10z m2 -35 c0 -5 -5 -11 -11 -13 -6 -2
-11 4 -11 13 0 9 5 15 11 13 6 -2 11 -8 11 -13z"/>
<path d="M1970 106 c-15 -29 -8 -56 15 -56 23 0 31 31 12 45 -12 9 -14 14 -5
23 7 7 8 12 2 12 -6 0 -16 -11 -24 -24z m22 -31 c0 -5 -5 -11 -11 -13 -6 -2
-11 4 -11 13 0 9 5 15 11 13 6 -2 11 -8 11 -13z"/>
<path d="M2040 125 c-1 -5 -1 -21 0 -34 1 -13 -4 -28 -12 -32 -9 -6 -3 -9 17
-9 17 0 25 4 18 8 -6 4 -13 23 -16 42 -2 19 -5 31 -7 25z"/>
<path d="M550 93 c0 -10 4 -14 8 -8 4 6 11 13 16 18 5 4 2 7 -7 7 -10 0 -17
-8 -17 -17z"/>
<path d="M661 83 c-1 -27 3 -33 19 -33 16 0 20 6 19 33 -2 30 -2 30 -6 5 -6
-36 -20 -36 -26 0 -4 25 -4 25 -6 -5z"/>
<path d="M807 104 c-13 -13 -7 -24 14 -24 11 0 19 5 17 12 -5 14 -22 21 -31
12z"/>
<path d="M861 78 c2 -28 2 -29 6 -8 3 14 10 28 17 32 7 5 5 8 -6 8 -14 0 -18
-8 -17 -32z"/>
<path d="M900 93 c0 -10 4 -14 8 -8 4 6 11 13 16 18 5 4 2 7 -7 7 -10 0 -17
-8 -17 -17z"/>
<path d="M994 95 c-8 -21 2 -45 20 -45 7 0 16 7 20 15 8 21 -3 45 -20 45 -8 0
-17 -7 -20 -15z m31 -15 c0 -7 -6 -15 -12 -17 -8 -3 -13 4 -13 17 0 13 5 20
13 18 6 -3 12 -11 12 -18z"/>
<path d="M1054 95 c-8 -20 2 -45 18 -44 10 0 10 2 1 6 -7 2 -13 13 -13 23 0
10 6 21 13 23 9 4 9 6 -1 6 -7 1 -15 -6 -18 -14z"/>
<path d="M1194 95 c-8 -20 2 -45 18 -44 10 0 10 2 1 6 -7 2 -13 13 -13 23 0
10 6 21 13 23 9 4 9 6 -1 6 -7 1 -15 -6 -18 -14z"/>
<path d="M1244 95 c-8 -21 2 -45 20 -45 7 0 16 7 20 15 8 21 -3 45 -20 45 -8
0 -17 -7 -20 -15z m31 -15 c0 -7 -6 -15 -12 -17 -8 -3 -13 4 -13 17 0 13 5 20
13 18 6 -3 12 -11 12 -18z"/>
<path d="M1301 77 c2 -31 2 -31 6 -4 2 15 8 27 13 27 5 0 11 -12 13 -27 l4
-28 2 28 c0 15 5 27 10 27 5 0 12 -12 14 -27 4 -27 4 -27 6 4 1 29 -1 31 -34
31 -33 0 -35 -2 -34 -31z"/>
<path d="M562 65 c-11 -12 -10 -15 3 -15 8 0 15 7 15 15 0 18 -2 18 -18 0z"/>
<path d="M912 65 c-11 -12 -10 -15 3 -15 8 0 15 7 15 15 0 18 -2 18 -18 0z"/>
<path d="M1120 71 c0 -5 5 -13 10 -16 6 -3 10 -2 10 4 0 5 -4 13 -10 16 -5 3
-10 2 -10 -4z"/>
<path d="M808 58 c5 -5 16 -8 23 -6 8 3 3 7 -10 11 -17 4 -21 3 -13 -5z"/>
</g>
</svg>
