<?xml version="1.0" standalone="no"?>
<!DOCTYPE svg PUBLIC "-//W3C//DTD SVG 20010904//EN"
 "http://www.w3.org/TR/2001/REC-SVG-20010904/DTD/svg10.dtd">
<svg version="1.0" xmlns="http://www.w3.org/2000/svg"
 width="1920.000000pt" height="1920.000000pt" viewBox="0 0 1920.000000 1920.000000"
 preserveAspectRatio="xMidYMid meet">

<g transform="translate(0.000000,1920.000000) scale(0.100000,-0.100000)"
fill="#000000" stroke="none">
<path d="M6520 16370 c-276 -22 -511 -59 -670 -107 -167 -50 -231 -98 -251
-188 -24 -107 28 -270 115 -361 37 -38 48 -44 84 -44 48 0 63 24 37 64 -20 30
-12 48 44 99 52 47 140 91 266 134 169 58 456 125 471 111 3 -3 -48 -100 -114
-214 -357 -624 -622 -1168 -682 -1403 -30 -114 -25 -202 13 -260 53 -79 171
-141 270 -141 76 0 88 12 74 76 -13 62 5 166 53 314 93 281 374 840 693 1373
69 116 104 184 100 195 -3 9 -26 38 -51 63 l-44 47 98 8 c219 17 573 1 656
-31 13 -5 21 0 29 19 19 41 -12 109 -72 156 -55 43 -111 64 -214 81 -88 14
-751 20 -905 9z"/>
<path d="M10503 16171 c-32 -15 -54 -38 -101 -108 -106 -158 -309 -508 -447
-768 -51 -97 -72 -124 -174 -228 -103 -105 -189 -177 -212 -177 -16 0 -39 33
-39 55 0 66 84 217 221 397 45 59 59 85 59 111 0 64 -92 155 -202 202 -62 25
-132 20 -199 -17 -138 -73 -377 -316 -662 -672 -48 -59 -87 -105 -87 -101 0 9
39 75 151 255 119 193 175 295 184 338 15 73 -68 168 -185 213 -52 20 -116 25
-138 10 -7 -4 -19 -37 -27 -72 -22 -106 -86 -240 -290 -607 -143 -255 -412
-535 -488 -506 -96 36 149 515 475 928 15 20 15 25 1 54 -20 41 -90 87 -171
112 -73 23 -120 25 -157 8 -53 -24 -259 -338 -383 -583 -75 -150 -323 -432
-427 -486 -69 -37 -100 -42 -119 -23 -33 33 -9 129 79 311 93 194 250 446 356
574 22 26 39 54 39 62 0 56 -150 143 -263 154 l-68 6 -52 -55 c-118 -123 -352
-555 -446 -821 -65 -184 -24 -335 129 -487 108 -107 242 -159 331 -130 61 20
167 124 241 234 33 50 61 92 63 94 1 1 15 -23 30 -55 41 -83 164 -204 247
-243 126 -59 206 -49 302 40 l45 42 28 -27 c63 -60 211 -107 268 -85 33 12 55
48 55 90 1 102 151 340 411 649 104 124 418 455 426 448 2 -2 -10 -45 -27 -96
-16 -50 -34 -128 -40 -174 -12 -101 0 -154 59 -243 94 -144 224 -201 316 -138
44 29 44 37 -9 -108 -51 -140 -55 -184 -22 -253 48 -98 195 -190 262 -165 28
11 54 64 54 110 0 30 48 136 97 214 l25 39 14 -31 c25 -60 101 -168 155 -220
125 -122 286 -149 418 -71 157 93 315 290 451 560 97 194 151 365 158 496 4
98 3 104 -26 168 -74 156 -263 277 -385 244 -99 -26 -286 -192 -437 -388 -35
-44 -65 -79 -67 -77 -14 14 381 662 532 872 18 25 -24 85 -80 114 -67 34 -190
40 -252 11z m355 -754 c46 -144 -169 -634 -367 -835 -102 -104 -179 -127 -256
-76 -51 34 -125 105 -125 119 0 24 260 390 394 555 83 102 193 217 241 252 57
42 96 36 113 -15z"/>
<path d="M11896 15704 c-128 -31 -267 -129 -338 -238 -21 -33 -49 -67 -62 -75
-81 -54 -204 -268 -274 -478 -37 -109 -66 -277 -60 -346 15 -179 232 -380 478
-443 165 -42 346 39 536 238 82 87 87 90 148 103 206 43 411 236 445 418 11
59 -7 157 -29 157 -4 0 -30 -35 -59 -79 -69 -106 -127 -169 -195 -210 -31 -19
-59 -32 -61 -29 -2 2 9 38 25 79 43 112 67 215 80 343 17 177 -8 267 -107 378
-145 163 -334 229 -527 182z m279 -198 c51 -33 60 -62 59 -176 -1 -123 -28
-224 -97 -373 -40 -84 -142 -257 -153 -257 -2 0 -21 11 -42 24 -52 33 -100 90
-131 156 -24 50 -26 66 -26 180 0 110 3 129 22 162 12 20 19 45 17 55 -5 19
51 120 89 162 74 80 195 111 262 67z m-534 -769 c31 -34 90 -87 132 -117 42
-30 76 -58 76 -63 2 -17 -124 -87 -176 -98 -47 -11 -60 -10 -82 2 -43 24 -63
74 -58 149 4 65 34 190 46 190 3 0 31 -28 62 -63z"/>
<path d="M12775 14522 c-57 -28 -96 -73 -110 -130 -39 -148 89 -276 237 -237
126 32 185 181 117 292 -49 79 -163 114 -244 75z"/>
<path d="M6823 13873 c-34 -7 -73 -59 -73 -98 0 -49 27 -74 100 -94 52 -13 65
-20 65 -36 0 -29 -57 -33 -84 -6 -27 27 -91 29 -91 3 0 -53 87 -99 164 -88 64
10 96 43 96 100 0 53 -18 69 -101 91 -60 16 -72 25 -63 48 9 25 70 23 84 -3
14 -27 80 -29 80 -2 0 62 -86 103 -177 85z"/>
<path d="M7980 13715 l0 -155 40 0 40 0 0 40 0 40 45 0 c101 0 159 76 125 164
-17 47 -64 66 -162 66 l-88 0 0 -155z m168 73 c7 -7 12 -21 12 -33 0 -31 -19
-45 -62 -45 l-38 0 0 45 0 45 38 0 c21 0 43 -5 50 -12z"/>
<path d="M9200 13715 l0 -155 115 0 115 0 0 35 0 35 -75 0 c-73 0 -75 1 -75
25 0 24 2 25 65 25 l65 0 0 35 0 35 -65 0 c-62 0 -65 1 -65 25 0 23 3 24 78
27 81 3 78 0 73 53 -1 12 -21 15 -116 15 l-115 0 0 -155z"/>
<path d="M10410 13715 l0 -155 115 0 115 0 0 35 0 35 -80 0 c-79 0 -80 0 -80
25 0 24 2 25 70 25 l70 0 0 35 0 35 -70 0 c-68 0 -70 1 -70 25 0 25 1 25 80
25 l80 0 0 35 0 35 -115 0 -115 0 0 -155z"/>
<path d="M11610 13715 l0 -155 88 0 c63 0 96 5 121 18 115 58 111 228 -6 278
-19 8 -68 14 -118 14 l-85 0 0 -155z m184 64 c20 -16 26 -29 26 -60 0 -55 -34
-89 -90 -89 l-40 0 0 85 0 85 39 0 c24 0 48 -8 65 -21z"/>
<path d="M5415 13794 c-302 -6 -910 -20 -1350 -29 -724 -15 -939 -22 -755 -24
36 -1 160 -5 275 -11 116 -5 341 -14 500 -20 160 -5 342 -12 405 -15 63 -3
286 -12 495 -20 209 -9 540 -22 735 -30 647 -27 774 -29 799 -16 53 29 61 124
13 161 -23 19 -40 20 -296 19 -149 -1 -518 -8 -821 -15z"/>
<path d="M12113 13796 c-34 -25 -47 -77 -29 -119 28 -68 -3 -67 836 -32 195 8
526 21 735 30 209 8 434 17 500 20 66 2 183 7 260 10 991 38 1053 41 845 44
-74 1 -184 4 -245 6 -60 3 -360 9 -665 15 -305 6 -739 15 -965 20 -225 5 -599
12 -830 16 -376 5 -422 4 -442 -10z"/>
<path d="M10550 13464 c-56 -20 -90 -43 -160 -109 -90 -84 -106 -90 -245 -89
-89 0 -167 9 -305 33 -164 29 -212 34 -426 38 -148 4 -299 1 -389 -6 -463 -38
-903 -154 -1350 -359 -158 -72 -201 -85 -280 -86 -63 0 -77 4 -145 39 -72 39
-78 40 -170 40 -84 -1 -101 -4 -148 -28 -117 -61 -185 -168 -186 -292 0 -38 4
-99 8 -135 8 -58 6 -71 -14 -110 -28 -56 -83 -126 -135 -171 -201 -176 -305
-273 -368 -347 -216 -252 -388 -497 -551 -780 -273 -476 -452 -992 -531 -1532
-141 -972 73 -1932 606 -2715 249 -365 605 -713 969 -946 189 -122 436 -249
620 -319 47 -18 132 -62 189 -98 244 -152 497 -240 836 -288 98 -14 236 -18
750 -24 747 -8 743 -8 845 -106 94 -91 245 -138 377 -116 181 30 333 173 373
352 43 192 264 400 654 617 56 31 149 85 208 120 94 56 161 83 535 217 380
136 642 231 1063 383 69 24 336 121 595 215 l469 170 49 -17 c35 -13 66 -16
112 -12 68 5 85 12 795 345 202 94 268 120 315 126 92 10 172 53 263 140 112
107 113 111 62 238 -23 56 -71 171 -107 253 -423 969 -877 1667 -1363 2093
-112 98 -113 99 -202 78 -140 -34 -236 -93 -298 -183 -15 -22 -765 -427 -780
-421 -4 2 -3 19 4 38 9 30 18 37 56 48 156 45 246 137 286 292 30 119 -3 244
-93 340 -65 71 -129 104 -237 125 -81 15 -144 45 -183 87 -28 30 -77 137 -143
313 -81 217 -198 444 -358 689 -292 451 -674 849 -1124 1172 -146 105 -212
171 -238 239 -7 17 -16 70 -20 118 -14 146 -83 250 -207 313 -48 24 -71 29
-147 31 -65 2 -104 -1 -136 -13z m215 -123 c102 -46 142 -109 156 -244 15
-151 94 -276 233 -369 111 -75 295 -219 419 -328 132 -116 366 -354 428 -435
55 -72 159 -278 223 -441 45 -115 136 -399 136 -423 0 -3 -27 44 -60 106 -257
487 -640 927 -1090 1250 -440 317 -976 539 -1515 627 -244 40 -391 49 -673 43
-360 -7 -622 -47 -941 -142 -84 -25 -155 -44 -157 -42 -6 6 253 97 380 133
177 50 370 90 561 115 143 19 216 23 460 23 287 0 293 -1 510 -37 300 -49 346
-53 425 -33 94 24 135 47 224 126 44 39 93 74 110 79 52 15 128 12 171 -8z
m-1440 -426 c137 -16 411 -67 421 -78 4 -3 -17 -30 -46 -59 -28 -29 -72 -81
-97 -116 -38 -52 -50 -62 -67 -57 -99 28 -378 97 -445 109 -804 150 -1571 -16
-2181 -470 -617 -459 -1117 -1221 -1314 -2001 -37 -144 -38 -139 37 -147 95
-11 105 -15 100 -37 -5 -17 -11 -19 -57 -12 -28 5 -106 8 -173 8 l-122 -1 6
26 c3 14 26 86 51 160 205 621 590 1263 1001 1670 587 582 1366 944 2196 1020
142 12 536 4 690 -15z m-2106 -112 c67 -34 82 -38 164 -42 l90 -3 -74 -32
c-120 -53 -421 -221 -470 -263 -24 -20 -39 -16 -39 11 0 14 -7 54 -15 90 -21
91 -8 150 48 211 79 86 169 95 296 28z m2846 -58 c704 -237 1326 -713 1730
-1324 370 -561 554 -1251 515 -1938 -12 -218 -35 -394 -53 -405 -76 -49 -320
-189 -323 -185 -3 2 0 53 6 113 13 140 13 467 0 609 -90 965 -573 1847 -1330
2426 -265 203 -576 379 -857 485 l-63 24 -50 -103 c-27 -56 -57 -131 -65 -167
-9 -36 -18 -72 -21 -82 -4 -13 13 -22 78 -44 126 -41 277 -107 425 -184 794
-412 1347 -1186 1495 -2090 25 -159 36 -556 19 -721 -20 -194 -88 -519 -113
-544 -7 -7 -8 -3 -5 10 9 33 35 175 49 265 20 134 17 567 -5 710 -93 590 -355
1104 -768 1505 -216 210 -409 345 -684 480 -164 81 -419 176 -513 191 -25 4
-47 14 -52 24 -5 10 -15 62 -21 115 -21 176 13 366 97 544 54 115 111 196 204
288 l71 72 52 -15 c29 -9 111 -35 182 -59z m-1020 -460 c122 -14 350 -56 360
-66 4 -4 -15 -189 -19 -196 -1 -1 -40 5 -86 13 -47 8 -185 17 -307 21 -317 8
-532 -15 -851 -92 -119 -29 -162 -35 -252 -35 -262 0 -631 -83 -839 -189 -80
-41 -53 -14 66 66 390 263 813 421 1276 477 156 19 492 19 652 1z m229 -380
c65 -7 120 -15 121 -17 2 -2 6 -20 10 -40 9 -45 13 -44 -118 -23 -149 24 -381
34 -549 24 -150 -10 -238 -6 -238 10 0 12 159 40 310 54 93 9 358 5 464 -8z
m-1152 -105 c387 -37 772 -195 1083 -445 539 -435 855 -1110 855 -1829 0 -649
-248 -1249 -698 -1688 -186 -181 -343 -292 -568 -400 -918 -440 -2000 -124
-2593 756 -485 719 -531 1709 -115 2473 420 772 1210 1211 2036 1133z m1163
-99 c169 -28 239 -46 405 -100 744 -246 1336 -842 1585 -1596 64 -196 95 -347
115 -570 12 -134 13 -355 1 -373 -8 -13 -135 -46 -152 -40 -5 2 -10 100 -13
218 -11 507 -133 899 -411 1320 -96 146 -149 212 -290 370 -94 104 -331 330
-356 338 -5 2 19 -40 55 -95 242 -370 394 -763 461 -1193 17 -106 34 -591 21
-579 -4 4 -18 60 -31 126 -115 564 -354 998 -729 1319 -60 52 -146 119 -191
150 -49 33 -98 76 -121 107 -58 78 -267 284 -364 358 -102 80 -229 163 -342
225 l-83 46 160 -6 c88 -3 214 -14 280 -25z m3914 -1496 c-27 -99 -141 -125
-209 -49 -41 47 -38 70 4 28 29 -29 41 -34 81 -34 40 0 52 5 81 34 22 22 34
44 34 63 1 22 3 25 10 12 6 -10 5 -30 -1 -54z m106 -63 c0 -44 -6 -68 -28
-104 -99 -169 -356 -114 -382 82 l-7 45 25 -50 c28 -60 73 -100 125 -115 57
-15 83 -12 140 16 64 32 104 92 106 159 2 66 21 36 21 -33z m942 -2 c120 -94
309 -290 446 -463 341 -430 636 -951 958 -1695 44 -101 82 -196 85 -211 5 -24
-2 -35 -52 -80 -65 -58 -132 -94 -165 -89 -18 2 -39 40 -115 213 -403 908
-859 1641 -1337 2152 -42 46 -77 85 -77 87 0 14 78 61 137 82 83 29 88 29 120
4z m-8555 -159 c24 -9 25 -12 18 -53 -31 -164 -44 -348 -45 -613 0 -293 6
-361 52 -600 126 -658 532 -1185 1186 -1539 48 -26 87 -45 87 -43 0 3 -30 24
-67 48 -37 24 -95 66 -128 93 -72 59 -235 217 -235 229 0 4 27 -13 61 -39 212
-163 446 -262 734 -310 50 -8 209 -20 355 -26 l265 -12 86 -53 c132 -81 349
-152 469 -153 69 -1 71 -4 49 -95 -33 -140 -44 -281 -31 -413 35 -347 169
-626 412 -855 l90 -85 -127 -7 c-186 -11 -633 11 -696 34 -10 4 57 15 150 24
214 21 407 47 424 57 9 6 5 18 -17 47 -46 59 -88 129 -139 233 -26 52 -48 96
-49 97 -1 1 -20 -2 -43 -7 -22 -5 -137 -24 -254 -41 -500 -72 -868 -20 -1269
181 -475 238 -912 687 -1300 1337 -156 261 -242 471 -315 768 -33 137 -67 339
-80 480 -4 39 -9 81 -11 95 -12 67 -16 573 -5 745 14 239 32 424 42 452 5 15
22 25 51 32 49 12 243 6 280 -8z m8433 -266 c404 -475 821 -1166 1140 -1890
31 -71 68 -154 81 -184 13 -29 24 -59 24 -65 0 -11 -63 -42 -390 -195 -47 -21
-182 -85 -300 -141 -240 -113 -282 -128 -325 -113 -26 8 -37 28 -101 174 -39
90 -71 165 -70 165 0 1 141 67 311 147 449 210 645 305 645 312 0 15 -302 603
-399 777 -102 182 -212 358 -197 315 21 -63 45 -181 48 -237 l3 -64 -145 -93
c-247 -159 -627 -393 -636 -393 -5 0 -57 82 -116 183 -59 100 -148 245 -198
321 -69 104 -88 141 -78 147 7 5 205 124 441 266 287 173 426 262 422 271 -3
7 -46 67 -97 133 -67 87 -96 119 -109 116 -9 -3 -210 -120 -445 -262 l-428
-257 -42 49 c-39 44 -41 49 -26 61 9 7 202 124 427 259 226 135 416 251 423
257 9 9 4 20 -27 50 -35 34 -41 37 -62 25 -13 -6 -210 -124 -438 -261 l-415
-250 -39 41 c-43 47 -41 62 16 105 17 13 223 126 457 250 l425 226 59 -63 c32
-34 105 -116 161 -182z m-1074 -575 c273 -326 576 -812 839 -1345 131 -267
281 -601 283 -633 2 -20 -6 -27 -48 -42 -27 -11 -255 -93 -505 -184 -806 -291
-927 -335 -1535 -552 -543 -194 -666 -239 -965 -351 -531 -199 -766 -282
-1011 -357 -303 -91 -600 -159 -844 -190 -110 -14 -110 -14 -145 9 -19 13 -55
41 -80 63 -44 39 -45 40 -20 45 14 3 141 31 284 62 992 217 2222 643 3730
1290 234 100 763 334 838 370 l37 18 43 -48 c24 -26 51 -61 62 -77 52 -80 14
48 -77 257 -101 235 -295 635 -308 635 -3 0 -60 -32 -125 -71 -773 -463 -1706
-953 -2424 -1271 -663 -294 -1248 -508 -1826 -667 -219 -60 -497 -124 -520
-119 -15 3 -72 124 -62 133 2 2 58 16 124 29 552 117 1290 391 2219 824 339
158 1028 511 1500 770 318 174 989 553 1003 567 9 8 -81 146 -92 142 -6 -3
-144 -88 -306 -189 -1601 -1003 -2941 -1654 -4008 -1947 -187 -52 -462 -115
-468 -108 -9 8 -32 155 -39 238 -7 91 6 238 31 346 27 116 21 110 121 118 238
17 443 67 668 160 245 101 874 417 1235 620 41 23 198 111 348 194 149 84 272
155 272 157 0 7 -431 -172 -717 -299 -57 -25 -103 -44 -103 -42 0 2 15 12 33
23 17 11 262 158 542 328 1290 778 1833 1106 1890 1142 28 17 53 31 57 29 3
-1 34 -36 69 -77z m-1667 -202 c-21 -143 -47 -282 -66 -349 l-21 -78 -87 -51
c-48 -27 -90 -50 -92 -50 -2 0 4 33 14 73 17 65 57 264 73 360 3 20 3 37 0 37
-3 0 -88 -15 -188 -34 -430 -81 -962 -120 -942 -69 3 8 5 20 5 28 0 9 33 14
128 19 241 13 647 66 967 126 83 15 165 28 183 29 l32 1 -6 -42z m-1001 -3459
c84 -23 145 -115 135 -204 -6 -49 -45 -118 -78 -135 -21 -11 -21 -10 -6 17 47
92 14 202 -75 248 -37 19 -122 19 -159 0 -17 -9 -30 -12 -30 -7 0 17 59 64 96
77 48 17 68 18 117 4z m-78 -143 c40 -17 75 -68 75 -109 0 -32 -21 -77 -46
-98 -15 -13 -16 -12 -8 11 16 45 10 98 -15 124 -35 37 -74 50 -112 37 -18 -6
-35 -9 -38 -5 -8 7 39 42 64 47 37 8 46 7 80 -7z"/>
<path d="M10650 13291 c16 -30 12 -83 -9 -117 -33 -55 -97 -73 -166 -48 l-20
7 20 -23 c23 -26 74 -50 106 -50 35 0 90 32 111 64 27 43 21 126 -12 161 -28
30 -45 33 -30 6z"/>
<path d="M10760 13276 c0 -4 5 -17 11 -28 19 -36 12 -116 -15 -162 -42 -72
-141 -106 -220 -76 -34 12 -33 0 2 -32 35 -34 72 -48 128 -48 59 0 103 19 141
63 57 65 63 149 17 228 -18 30 -64 69 -64 55z"/>
<path d="M7080 12762 c0 -90 -53 -163 -129 -178 -48 -10 -36 -24 20 -24 97 0
156 65 147 160 -3 26 -12 58 -21 71 -17 23 -17 23 -17 -29z"/>
<path d="M7003 12782 c13 -57 -44 -141 -96 -143 -20 0 -20 -1 -3 -8 30 -12 74
-1 101 26 30 30 35 97 9 129 -15 18 -15 18 -11 -4z"/>
<path d="M9536 11982 c-7 -11 -5 -97 2 -109 4 -5 72 -29 152 -52 171 -50 327
-111 494 -191 114 -55 312 -165 373 -207 16 -11 46 -30 68 -42 l40 -23 -35 32
c-214 193 -480 366 -732 474 -148 63 -354 130 -362 118z"/>
<path d="M7579 11635 c-339 -46 -667 -187 -925 -396 -375 -304 -632 -760 -724
-1280 -28 -156 -38 -503 -21 -660 42 -367 176 -740 369 -1029 115 -171 131
-181 61 -40 -141 286 -239 582 -290 881 -30 175 -37 515 -15 695 59 485 270
916 606 1237 131 125 259 217 410 296 187 97 329 145 540 182 138 25 396 30
539 10 375 -52 732 -207 1116 -487 35 -25 17 -4 -61 72 -284 280 -656 461
-1065 519 -128 18 -407 18 -540 0z"/>
<path d="M7730 11490 c-77 -11 -221 -39 -232 -46 -12 -7 12 -49 141 -253 150
-236 169 -261 217 -288 50 -28 81 -30 214 -13 131 16 323 8 440 -19 196 -45
349 -117 549 -258 78 -56 101 -62 156 -39 45 19 68 59 94 163 l21 84 -47 56
c-256 300 -637 522 -1018 594 -124 24 -423 34 -535 19z"/>
<path d="M7145 11307 c-589 -311 -977 -907 -1054 -1619 -43 -388 35 -829 209
-1183 69 -141 159 -285 179 -285 61 0 429 167 529 241 41 30 72 81 72 120 0
12 -23 66 -50 121 -128 250 -186 546 -160 813 47 492 243 850 619 1133 127 96
151 126 151 192 0 42 -7 56 -87 160 -47 63 -118 153 -157 200 -40 47 -84 102
-100 123 -16 20 -33 37 -40 37 -6 0 -56 -24 -111 -53z"/>
<path d="M8056 10720 c-236 -38 -466 -160 -641 -341 -137 -142 -230 -292 -294
-472 -235 -668 68 -1417 678 -1676 149 -63 217 -75 421 -76 161 0 196 3 267
23 448 122 777 485 884 975 28 131 35 353 15 484 -82 534 -434 946 -911 1064
-93 23 -325 33 -419 19z m441 -204 c2 -2 -7 -21 -21 -41 -57 -83 -63 -208 -22
-428 14 -76 26 -147 26 -156 0 -16 -12 -20 -76 -26 -41 -4 -77 -5 -79 -3 -11
12 -175 542 -175 566 0 47 27 71 100 87 58 13 234 14 247 1z m-557 -111 c0 -2
-32 -40 -71 -82 -128 -141 -222 -301 -277 -474 -41 -128 -52 -200 -52 -344 0
-267 82 -553 205 -717 163 -217 364 -319 658 -335 78 -4 113 -9 103 -15 -34
-19 -115 -38 -186 -45 l-75 -6 -81 -68 c-86 -73 -96 -76 -171 -58 l-45 12 63
33 c35 19 84 51 109 73 l44 38 -39 13 c-22 7 -66 25 -97 40 -63 29 -72 27 -33
-10 14 -13 25 -26 25 -30 0 -13 -113 -60 -173 -71 -81 -15 -99 -10 -189 50
-211 142 -394 386 -449 598 -20 80 -38 274 -24 261 5 -5 18 -45 30 -90 12 -46
28 -94 34 -108 l12 -25 -6 25 c-16 75 -27 213 -21 254 4 26 9 46 12 44 2 -3
11 -44 19 -92 16 -91 46 -187 85 -269 28 -58 36 -56 14 4 -46 131 -67 341 -45
469 10 60 18 35 25 -80 3 -52 15 -134 25 -181 25 -109 71 -262 78 -256 2 3 -2
38 -11 79 -32 149 -46 376 -27 473 7 40 7 40 15 -25 10 -88 44 -253 62 -298
l14 -37 -5 35 c-19 137 -25 319 -15 431 30 330 148 560 371 729 78 58 89 65
89 55z m951 -103 c54 -35 121 -107 177 -189 23 -34 42 -64 42 -66 0 -2 -23 -7
-51 -10 -101 -12 -189 -79 -281 -215 l-49 -72 -64 52 c-38 30 -65 59 -65 70 0
27 220 458 234 458 7 0 32 -13 57 -28z m-869 -554 c15 -24 48 -63 73 -87 l47
-43 -7 -69 -7 -69 -275 0 -275 0 7 28 c19 79 154 232 305 345 l75 56 16 -58
c8 -32 27 -78 41 -103z m570 35 c32 -35 57 -80 36 -67 -7 5 -38 11 -68 14
l-56 5 1 -160 c0 -138 -3 -165 -19 -195 -39 -73 -89 -110 -151 -110 -89 0
-145 58 -165 170 -24 133 9 250 92 325 l50 45 127 0 c126 0 128 0 153 -27z
m566 -200 l72 -6 0 -121 c0 -85 -6 -145 -20 -202 -19 -83 -48 -154 -61 -154
-4 0 -13 16 -19 35 -11 33 -58 108 -98 156 -31 39 -149 115 -206 134 l-56 19
0 80 0 79 158 -7 c86 -3 190 -9 230 -13z m-861 -378 c2 -1 -17 -71 -41 -156
-94 -324 -146 -502 -149 -505 -5 -5 -94 71 -120 102 -58 70 -97 189 -97 298
l0 66 35 0 c20 0 51 7 71 15 41 17 142 110 191 178 l35 47 36 -22 c21 -12 38
-22 39 -23z m483 -234 c139 -291 137 -253 15 -346 -77 -59 -215 -135 -244
-135 -18 0 -17 5 7 78 24 71 25 91 26 267 0 148 -3 205 -17 258 -9 38 -17 72
-17 78 0 13 94 69 102 61 4 -4 61 -121 128 -261z"/>
<path d="M8288 9711 c-44 -21 -67 -88 -68 -193 l0 -76 29 29 c39 39 100 41
136 4 14 -13 25 -29 25 -35 0 -6 5 -8 10 -5 13 8 13 140 -1 190 -12 43 -50 90
-80 98 -10 3 -33 -3 -51 -12z"/>
<path d="M9450 10568 c-68 -85 -92 -152 -91 -249 0 -79 0 -79 90 -310 90 -236
108 -579 46 -880 -37 -176 -121 -378 -220 -531 -30 -46 -101 -125 -191 -213
-175 -171 -186 -192 -192 -347 -4 -100 15 -247 37 -285 10 -18 194 131 299
241 311 330 495 727 558 1206 12 97 15 171 10 325 -7 282 -42 466 -132 710
-46 124 -161 357 -179 361 -5 2 -21 -11 -35 -28z"/>
<path d="M7118 8318 c-68 -27 -477 -288 -478 -305 0 -15 122 -127 229 -211
426 -334 990 -452 1505 -317 104 27 291 96 318 118 14 10 18 46 23 213 l7 200
-24 29 c-30 34 -64 37 -153 12 -171 -46 -471 -61 -641 -32 -184 33 -349 104
-490 212 -110 84 -128 94 -186 99 -39 3 -68 -2 -110 -18z"/>
<path d="M14187 10025 c-38 -24 -70 -45 -73 -47 -2 -3 12 -23 32 -47 l36 -42
47 27 c25 15 61 37 78 49 l33 22 -36 41 c-20 23 -39 42 -42 41 -4 0 -38 -20
-75 -44z"/>
<path d="M14352 9836 c-41 -24 -73 -47 -72 -52 0 -5 46 -67 102 -137 95 -122
101 -127 122 -114 11 7 49 30 84 51 35 21 62 42 60 47 -5 15 -208 249 -216
249 -4 0 -40 -20 -80 -44z"/>
<path d="M14983 8969 l-93 -62 22 -35 c70 -114 224 -398 326 -602 64 -129 118
-237 120 -239 1 -3 47 17 101 44 l99 48 -21 51 c-60 147 -368 722 -447 835
-15 21 -16 21 -107 -40z"/>
<path d="M5830 7775 c0 -14 97 -190 161 -293 133 -213 253 -366 424 -541 365
-375 727 -569 1245 -668 80 -15 144 -18 405 -17 323 2 453 14 447 43 -1 7 -5
77 -9 155 -4 106 -1 169 11 255 9 62 15 116 12 118 -3 3 -32 -49 -65 -115
l-60 -119 -133 -19 c-101 -14 -193 -19 -378 -19 -276 0 -375 12 -598 70 -536
139 -1010 496 -1374 1035 -77 114 -88 128 -88 115z"/>
<path d="M4743 12909 c-241 -23 -478 -98 -652 -206 -104 -64 -253 -215 -314
-319 -182 -307 -165 -703 47 -1149 29 -60 158 -288 287 -505 129 -217 376
-634 549 -927 360 -608 316 -567 344 -320 12 107 13 143 4 160 -12 23 -125
215 -633 1072 -170 286 -330 565 -356 620 -182 380 -196 718 -41 956 149 228
417 361 812 403 25 3 447 5 938 5 l892 1 0 28 c0 23 30 120 54 175 8 16 -40
17 -920 16 -511 -1 -966 -5 -1011 -10z"/>
<path d="M11360 12907 c8 -8 72 -57 142 -110 l127 -96 1223 -4 c1046 -3 1235
-6 1308 -19 402 -73 625 -209 746 -453 61 -123 77 -207 71 -370 -6 -182 -62
-378 -154 -545 -31 -55 -447 -763 -505 -857 l-19 -32 29 -15 c16 -8 56 -38 89
-65 l60 -50 238 402 c307 517 321 542 367 656 161 394 157 751 -13 1042 -57
100 -208 249 -314 311 -191 114 -427 182 -717 208 -57 5 -685 9 -1398 10
-1082 0 -1292 -2 -1280 -13z"/>
<path d="M4700 12465 c-173 -30 -284 -69 -390 -140 -84 -56 -140 -120 -182
-211 -29 -62 -32 -80 -36 -184 -5 -133 9 -217 58 -350 50 -139 111 -252 386
-715 144 -242 323 -545 399 -672 75 -128 141 -233 146 -233 5 0 9 6 9 14 0 34
106 380 161 528 252 672 703 1349 1159 1740 58 50 120 107 139 127 34 37 71
90 71 104 0 4 -415 7 -922 6 -702 -1 -941 -4 -998 -14z m10 -392 c0 -10 -16
-101 -35 -203 -19 -102 -35 -188 -35 -192 0 -33 -96 52 -121 107 -51 111 13
253 131 290 59 18 60 18 60 -2z m149 -50 c89 -87 95 -197 16 -291 -47 -56
-155 -96 -155 -58 0 14 57 337 67 374 3 12 9 22 14 22 5 0 31 -21 58 -47z"/>
<path d="M12012 12341 c397 -410 718 -901 898 -1376 40 -104 81 -206 91 -227
24 -47 62 -76 108 -83 146 -23 251 -75 336 -167 85 -92 144 -239 145 -361 l0
-38 89 47 c54 28 94 56 102 71 22 41 97 101 174 139 l71 35 240 405 c131 223
270 458 307 522 321 545 239 955 -221 1102 -205 66 -146 63 -1366 67 l-1109 4
135 -140z m2185 -316 c93 -47 138 -148 109 -247 -13 -47 -49 -99 -59 -87 -17
21 -219 323 -223 333 -13 34 106 34 173 1z m-129 -209 c62 -91 112 -169 112
-175 0 -17 -87 -24 -134 -11 -94 26 -155 109 -156 208 0 59 35 142 59 142 4 0
57 -74 119 -164z"/>
<path d="M11850 6021 c-58 -20 -132 -55 -165 -77 -55 -36 -66 -51 -151 -194
-50 -85 -170 -288 -266 -450 -404 -682 -600 -1014 -784 -1325 -224 -379 -293
-480 -419 -613 -152 -161 -323 -271 -478 -307 -96 -22 -244 -20 -338 4 -163
42 -319 141 -466 295 -130 135 -181 214 -513 781 -26 44 -149 253 -275 465
-125 212 -270 457 -322 545 -52 88 -98 161 -102 163 -4 1 -47 28 -97 60 -82
53 -242 128 -252 118 -2 -2 144 -253 324 -558 180 -304 449 -758 597 -1008
148 -250 294 -491 325 -535 77 -107 244 -279 342 -351 146 -107 316 -181 470
-205 104 -16 296 -6 389 21 272 77 532 286 753 605 31 44 201 325 378 625 341
575 415 701 847 1430 344 581 326 550 316 549 -4 0 -55 -17 -113 -38z"/>
<path d="M11164 5631 c-128 -91 -244 -204 -280 -273 -9 -17 -22 -56 -30 -87
-41 -161 -134 -288 -275 -373 -93 -56 -176 -79 -289 -81 -161 -1 -267 34 -379
125 -30 23 -61 49 -71 56 -9 7 -50 20 -91 28 -62 13 -155 16 -584 15 -650 -1
-847 14 -1132 89 -59 15 -109 27 -111 25 -5 -5 802 -1368 873 -1475 79 -119
174 -223 263 -289 333 -246 652 -162 966 254 50 66 131 196 271 435 34 58 140
238 237 400 160 270 695 1175 705 1193 8 13 -3 7 -73 -42z m-1683 -1573 c52
-17 89 -47 120 -96 51 -81 34 -197 -40 -266 -19 -19 -35 -26 -40 -20 -5 5 -35
90 -67 189 -31 99 -59 186 -61 193 -6 16 42 16 88 0z m-147 -65 c76 -238 106
-336 106 -344 0 -17 -65 -9 -117 16 -129 59 -159 225 -60 332 22 24 43 43 47
43 5 0 15 -21 24 -47z"/>
</g>
</svg>
